<?xml version="1.0" encoding="UTF-8" standalone="no"?>
<!-- Created with Inkscape (http://www.inkscape.org/) -->

<svg
   width="70"
   height="70"
   viewBox="0 0 18.520833 18.520833"
   version="1.1"
   id="svg5"
   inkscape:version="1.2 (dc2aeda, 2022-05-15)"
   sodipodi:docname="car_base.svg"
   xmlns:inkscape="http://www.inkscape.org/namespaces/inkscape"
   xmlns:sodipodi="http://sodipodi.sourceforge.net/DTD/sodipodi-0.dtd"
   xmlns="http://www.w3.org/2000/svg"
   xmlns:svg="http://www.w3.org/2000/svg">
  <sodipodi:namedview
     id="namedview7"
     pagecolor="#505050"
     bordercolor="#eeeeee"
     borderopacity="1"
     inkscape:showpageshadow="0"
     inkscape:pageopacity="0"
     inkscape:pagecheckerboard="0"
     inkscape:deskcolor="#505050"
     inkscape:document-units="mm"
     showgrid="false"
     inkscape:zoom="7.319248"
     inkscape:cx="26.983646"
     inkscape:cy="36.069279"
     inkscape:window-width="1440"
     inkscape:window-height="758"
     inkscape:window-x="0"
     inkscape:window-y="25"
     inkscape:window-maximized="0"
     inkscape:current-layer="layer1" />
  <defs
     id="defs2" />
  <g
     inkscape:label="Layer 1"
     inkscape:groupmode="layer"
     id="layer1">
    <g
       id="g2257"
       transform="matrix(0,0.40046,-0.47410644,0,17.097528,6.364383)">
      <path
         id="rect234"
         style="fill:#00ff00;stroke-width:8.57303;stroke-linejoin:round"
         d="m 7.8995645,-1.9430119 -3.219443,8.21449 -11.237557,6.0823099 0.04237,14.89212 13.38368,7.75766 7.7096105,-2.46341 V -1.9430119 Z m -3.219443,9.26366 v 5.4607599 h -9.833271 z m -9.833271,6.7349899 h 9.833271 v 6.70941 h -9.833271 z m 0,8.13926 h 9.833271 v 7.10049 l -9.833271,-2.88728 z"
         sodipodi:nodetypes="cccccccccccccccccccccc" />
      <ellipse
         style="fill:#00ff00;stroke-width:8.57303;stroke-linejoin:round"
         id="path294"
         cx="17.094925"
         cy="25.342907"
         rx="3.8786902"
         ry="4.0844107" />
      <ellipse
         style="fill:#00ff00;stroke-width:8.57303;stroke-linejoin:round"
         id="path294-3"
         cx="17.142281"
         cy="5.4389153"
         rx="3.8786902"
         ry="4.0844107" />
      <g
         id="path664">
        <path
           style="color:#000000;fill:#000000"
           d="M 12.924427,12.124434 9.6028058,6.1345383 6.6227507,12.298422 l 2.5003669,-0.09272 0.105398,19.374415 1.1660154,-0.0059 -0.106197,-19.374515 z"
           id="path5270"
           sodipodi:nodetypes="cccccccc" />
        <g
           id="g5264">
          <path
             d="M 6.3543262,11.662773 8.9442118,6.4110913 A 0.81549997,0.81549997 0 0 1 10.403,6.4030794 l 2.647414,5.2229176 a 1.0080134,1.0080134 0 0 1 -0.893569,1.46374 L 7.263919,13.11661 A 1.0080134,1.0080134 0 0 1 6.3543262,11.662773 Z"
             style="fill:context-stroke;fill-rule:evenodd;stroke-width:0.8155"
             id="path5266" />
        </g>
      </g>
    </g>
  </g>
</svg>
